<mxfile host="65bd71144e">
    <diagram id="qxqVOPvH9WYi2e1rybbK" name="Page-1">
        <mxGraphModel dx="343" dy="283" grid="1" gridSize="10" guides="1" tooltips="1" connect="1" arrows="1" fold="1" page="1" pageScale="1" pageWidth="850" pageHeight="1100" math="0" shadow="0">
            <root>
                <mxCell id="0"/>
                <mxCell id="1" parent="0"/>
                <mxCell id="2" value="Division&amp;nbsp;" style="swimlane;whiteSpace=wrap;html=1;" vertex="1" parent="1">
                    <mxGeometry x="270" y="321" width="320" height="200" as="geometry"/>
                </mxCell>
                <mxCell id="3" value="7" style="text;html=1;strokeColor=none;fillColor=none;align=left;verticalAlign=middle;whiteSpace=wrap;rounded=0;" vertex="1" parent="2">
                    <mxGeometry x="10" y="40" width="125" height="30" as="geometry"/>
                </mxCell>
                <mxCell id="5" value="3" style="text;html=1;strokeColor=none;fillColor=none;align=left;verticalAlign=middle;whiteSpace=wrap;rounded=0;" vertex="1" parent="2">
                    <mxGeometry x="10" y="70" width="115" height="30" as="geometry"/>
                </mxCell>
                <mxCell id="6" value="" style="endArrow=none;html=1;" edge="1" parent="2">
                    <mxGeometry width="50" height="50" relative="1" as="geometry">
                        <mxPoint x="10" y="94" as="sourcePoint"/>
                        <mxPoint x="140" y="94" as="targetPoint"/>
                    </mxGeometry>
                </mxCell>
                <mxCell id="7" value="Calculate" style="rounded=1;whiteSpace=wrap;html=1;" vertex="1" parent="2">
                    <mxGeometry x="5" y="110" width="77.5" height="20" as="geometry"/>
                </mxCell>
                <mxCell id="9" value="Your answer is 2 with a remainder of 1" style="text;html=1;strokeColor=none;fillColor=none;align=center;verticalAlign=middle;whiteSpace=wrap;rounded=0;" vertex="1" parent="2">
                    <mxGeometry x="5" y="140" width="245" height="30" as="geometry"/>
                </mxCell>
                <mxCell id="4" value="" style="endArrow=none;html=1;" edge="1" parent="1">
                    <mxGeometry width="50" height="50" relative="1" as="geometry">
                        <mxPoint x="280" y="384" as="sourcePoint"/>
                        <mxPoint x="410" y="384" as="targetPoint"/>
                    </mxGeometry>
                </mxCell>
            </root>
        </mxGraphModel>
    </diagram>
</mxfile>